<mxfile host="Electron" agent="Mozilla/5.0 (Windows NT 10.0; Win64; x64) AppleWebKit/537.36 (KHTML, like Gecko) draw.io/24.7.17 Chrome/128.0.6613.36 Electron/32.0.1 Safari/537.36" version="24.7.17">
  <diagram name="Page-1" id="Yo6T9ArMBEz426C-3j4C">
    <mxGraphModel dx="1098" dy="988" grid="1" gridSize="10" guides="1" tooltips="1" connect="1" arrows="1" fold="1" page="1" pageScale="1" pageWidth="850" pageHeight="1100" math="0" shadow="0">
      <root>
        <mxCell id="0" />
        <mxCell id="1" parent="0" />
        <mxCell id="y-uRNxsTeeFQcumJNn5d-3" value="" style="edgeStyle=orthogonalEdgeStyle;rounded=0;orthogonalLoop=1;jettySize=auto;html=1;" parent="1" source="y-uRNxsTeeFQcumJNn5d-1" target="y-uRNxsTeeFQcumJNn5d-2" edge="1">
          <mxGeometry relative="1" as="geometry" />
        </mxCell>
        <mxCell id="y-uRNxsTeeFQcumJNn5d-1" value="START" style="ellipse;whiteSpace=wrap;html=1;" parent="1" vertex="1">
          <mxGeometry x="360" y="90" width="120" height="80" as="geometry" />
        </mxCell>
        <mxCell id="RnWzGxkFvoftmNyMjEcE-6" style="edgeStyle=orthogonalEdgeStyle;rounded=0;orthogonalLoop=1;jettySize=auto;html=1;entryX=0.5;entryY=0;entryDx=0;entryDy=0;exitX=0;exitY=0.5;exitDx=0;exitDy=0;" edge="1" parent="1" source="y-uRNxsTeeFQcumJNn5d-2" target="RnWzGxkFvoftmNyMjEcE-1">
          <mxGeometry relative="1" as="geometry">
            <mxPoint x="350" y="170" as="sourcePoint" />
          </mxGeometry>
        </mxCell>
        <mxCell id="RnWzGxkFvoftmNyMjEcE-7" style="edgeStyle=orthogonalEdgeStyle;rounded=0;orthogonalLoop=1;jettySize=auto;html=1;exitX=0;exitY=0.75;exitDx=0;exitDy=0;entryX=0.5;entryY=0;entryDx=0;entryDy=0;" edge="1" parent="1" source="y-uRNxsTeeFQcumJNn5d-2" target="RnWzGxkFvoftmNyMjEcE-2">
          <mxGeometry relative="1" as="geometry" />
        </mxCell>
        <mxCell id="RnWzGxkFvoftmNyMjEcE-8" style="edgeStyle=orthogonalEdgeStyle;rounded=0;orthogonalLoop=1;jettySize=auto;html=1;entryX=0.5;entryY=0;entryDx=0;entryDy=0;" edge="1" parent="1" source="y-uRNxsTeeFQcumJNn5d-2" target="RnWzGxkFvoftmNyMjEcE-3">
          <mxGeometry relative="1" as="geometry" />
        </mxCell>
        <mxCell id="RnWzGxkFvoftmNyMjEcE-9" style="edgeStyle=orthogonalEdgeStyle;rounded=0;orthogonalLoop=1;jettySize=auto;html=1;exitX=1;exitY=0.5;exitDx=0;exitDy=0;entryX=0.5;entryY=0;entryDx=0;entryDy=0;" edge="1" parent="1" source="y-uRNxsTeeFQcumJNn5d-2" target="RnWzGxkFvoftmNyMjEcE-5">
          <mxGeometry relative="1" as="geometry" />
        </mxCell>
        <mxCell id="RnWzGxkFvoftmNyMjEcE-10" style="edgeStyle=orthogonalEdgeStyle;rounded=0;orthogonalLoop=1;jettySize=auto;html=1;exitX=1;exitY=0.75;exitDx=0;exitDy=0;entryX=0.5;entryY=0;entryDx=0;entryDy=0;" edge="1" parent="1" source="y-uRNxsTeeFQcumJNn5d-2" target="RnWzGxkFvoftmNyMjEcE-4">
          <mxGeometry relative="1" as="geometry" />
        </mxCell>
        <mxCell id="y-uRNxsTeeFQcumJNn5d-2" value="Nhập điểm" style="shape=parallelogram;perimeter=parallelogramPerimeter;whiteSpace=wrap;html=1;fixedSize=1;" parent="1" vertex="1">
          <mxGeometry x="360" y="240" width="120" height="60" as="geometry" />
        </mxCell>
        <mxCell id="RnWzGxkFvoftmNyMjEcE-20" style="edgeStyle=orthogonalEdgeStyle;rounded=0;orthogonalLoop=1;jettySize=auto;html=1;entryX=0.5;entryY=0;entryDx=0;entryDy=0;" edge="1" parent="1" source="RnWzGxkFvoftmNyMjEcE-1" target="RnWzGxkFvoftmNyMjEcE-11">
          <mxGeometry relative="1" as="geometry" />
        </mxCell>
        <mxCell id="RnWzGxkFvoftmNyMjEcE-1" value="Điểm &amp;lt; 4" style="rhombus;whiteSpace=wrap;html=1;" vertex="1" parent="1">
          <mxGeometry x="50" y="370" width="80" height="80" as="geometry" />
        </mxCell>
        <mxCell id="RnWzGxkFvoftmNyMjEcE-19" style="edgeStyle=orthogonalEdgeStyle;rounded=0;orthogonalLoop=1;jettySize=auto;html=1;entryX=0.5;entryY=0;entryDx=0;entryDy=0;" edge="1" parent="1" source="RnWzGxkFvoftmNyMjEcE-2" target="RnWzGxkFvoftmNyMjEcE-12">
          <mxGeometry relative="1" as="geometry" />
        </mxCell>
        <mxCell id="RnWzGxkFvoftmNyMjEcE-2" value="4 &amp;lt;= Điểm &amp;lt;= 6" style="rhombus;whiteSpace=wrap;html=1;" vertex="1" parent="1">
          <mxGeometry x="190" y="370" width="110" height="80" as="geometry" />
        </mxCell>
        <mxCell id="RnWzGxkFvoftmNyMjEcE-18" style="edgeStyle=orthogonalEdgeStyle;rounded=0;orthogonalLoop=1;jettySize=auto;html=1;" edge="1" parent="1" source="RnWzGxkFvoftmNyMjEcE-3" target="RnWzGxkFvoftmNyMjEcE-13">
          <mxGeometry relative="1" as="geometry" />
        </mxCell>
        <mxCell id="RnWzGxkFvoftmNyMjEcE-3" value="6 &amp;lt;= Điểm &amp;lt;= 8" style="rhombus;whiteSpace=wrap;html=1;" vertex="1" parent="1">
          <mxGeometry x="365" y="370" width="110" height="80" as="geometry" />
        </mxCell>
        <mxCell id="RnWzGxkFvoftmNyMjEcE-17" style="edgeStyle=orthogonalEdgeStyle;rounded=0;orthogonalLoop=1;jettySize=auto;html=1;entryX=0.5;entryY=0;entryDx=0;entryDy=0;" edge="1" parent="1" source="RnWzGxkFvoftmNyMjEcE-4" target="RnWzGxkFvoftmNyMjEcE-14">
          <mxGeometry relative="1" as="geometry" />
        </mxCell>
        <mxCell id="RnWzGxkFvoftmNyMjEcE-4" value="8 &amp;lt;= Điểm &amp;lt;= 9" style="rhombus;whiteSpace=wrap;html=1;" vertex="1" parent="1">
          <mxGeometry x="520" y="370" width="110" height="80" as="geometry" />
        </mxCell>
        <mxCell id="RnWzGxkFvoftmNyMjEcE-16" style="edgeStyle=orthogonalEdgeStyle;rounded=0;orthogonalLoop=1;jettySize=auto;html=1;" edge="1" parent="1" source="RnWzGxkFvoftmNyMjEcE-5" target="RnWzGxkFvoftmNyMjEcE-15">
          <mxGeometry relative="1" as="geometry" />
        </mxCell>
        <mxCell id="RnWzGxkFvoftmNyMjEcE-5" value="9 &amp;lt;= Điểm &amp;lt;= 10" style="rhombus;whiteSpace=wrap;html=1;" vertex="1" parent="1">
          <mxGeometry x="680" y="370" width="110" height="80" as="geometry" />
        </mxCell>
        <mxCell id="RnWzGxkFvoftmNyMjEcE-11" value="Không đạt" style="shape=parallelogram;perimeter=parallelogramPerimeter;whiteSpace=wrap;html=1;fixedSize=1;" vertex="1" parent="1">
          <mxGeometry x="30" y="550" width="120" height="60" as="geometry" />
        </mxCell>
        <mxCell id="RnWzGxkFvoftmNyMjEcE-12" value="Trung bình" style="shape=parallelogram;perimeter=parallelogramPerimeter;whiteSpace=wrap;html=1;fixedSize=1;" vertex="1" parent="1">
          <mxGeometry x="185" y="550" width="120" height="60" as="geometry" />
        </mxCell>
        <mxCell id="RnWzGxkFvoftmNyMjEcE-13" value="Khá" style="shape=parallelogram;perimeter=parallelogramPerimeter;whiteSpace=wrap;html=1;fixedSize=1;" vertex="1" parent="1">
          <mxGeometry x="360" y="550" width="120" height="60" as="geometry" />
        </mxCell>
        <mxCell id="RnWzGxkFvoftmNyMjEcE-14" value="Giỏi" style="shape=parallelogram;perimeter=parallelogramPerimeter;whiteSpace=wrap;html=1;fixedSize=1;" vertex="1" parent="1">
          <mxGeometry x="515" y="550" width="120" height="60" as="geometry" />
        </mxCell>
        <mxCell id="RnWzGxkFvoftmNyMjEcE-15" value="Xuất xắc" style="shape=parallelogram;perimeter=parallelogramPerimeter;whiteSpace=wrap;html=1;fixedSize=1;" vertex="1" parent="1">
          <mxGeometry x="675" y="550" width="120" height="60" as="geometry" />
        </mxCell>
      </root>
    </mxGraphModel>
  </diagram>
</mxfile>
